<svg width="187" height="43" viewBox="0 0 187 43" fill="none" xmlns="http://www.w3.org/2000/svg">
<path d="M60.6765 15.7429L57.3069 29.3812L53.9378 15.7429H48.6148L53.8288 32.5224C54.6637 35.2096 52.6316 38.0094 49.85 37.8568C49.8139 37.8548 49.7777 37.8524 49.741 37.8495C47.0916 37.6481 45.1082 35.2828 45.1082 32.5965V8.95518H40.0519L40.0297 32.7911C40.0297 38.4201 44.5588 43 50.1269 43C51.8618 43 53.495 42.5547 54.9227 41.7715C55.4436 41.4862 55.9332 41.1502 56.3943 40.7795C57.9253 39.5496 59.0944 37.8826 59.7171 35.9641L66 15.7434L60.6765 15.7429Z" fill="#DD1F25"/>
<path d="M30.893 8.95518V16.1564C30.3248 15.9038 29.7619 15.7087 29.2062 15.5707C28.6487 15.4327 28.0178 15.3639 27.314 15.3639C26.0412 15.3639 24.911 15.5824 23.9227 16.0184C22.934 16.4554 22.0986 17.087 21.4175 17.9141C20.736 18.7412 20.2126 19.7468 19.8494 20.93C19.4858 22.1131 19.3044 23.4401 19.3044 24.911C19.3044 26.3585 19.5142 27.6626 19.9353 28.8223C20.3549 29.983 20.9627 30.9711 21.7585 31.7865C22.5539 32.6024 23.5311 33.2286 24.6901 33.6651C25.8492 34.1011 27.1669 34.3201 28.6443 34.3201C29.2574 34.3201 29.8993 34.2908 30.5703 34.2337C31.2402 34.1762 31.8996 34.1011 32.5473 34.0094C33.1951 33.9177 33.814 33.809 34.4053 33.6822C34.9957 33.5563 35.5185 33.4242 35.9734 33.2857V8.95518H30.893ZM30.893 29.7699C30.6426 29.8162 30.3248 29.8562 29.9389 29.8903C29.5521 29.9245 29.132 29.942 28.6776 29.942C27.2909 29.942 26.2457 29.4592 25.5415 28.4941C24.8373 27.5289 24.4847 26.2541 24.4847 24.6686C24.4847 21.3601 25.6891 19.7054 28.0983 19.7054C28.6207 19.7054 29.1382 19.7746 29.649 19.9122C30.1608 20.0502 30.5746 20.2228 30.8934 20.4296L30.893 29.7699Z" fill="#DD1F25"/>
<path d="M0 24.9239C0 23.3184 0.243578 21.9124 0.7317 20.7073C1.21982 19.5027 1.86036 18.499 2.65525 17.6953C3.44917 16.8926 4.36271 16.2839 5.39586 15.8708C6.42854 15.4578 7.48919 15.2515 8.57878 15.2515C11.1202 15.2515 13.1286 16.0376 14.6041 17.609C16.0791 19.1813 16.817 21.493 16.817 24.5444C16.817 24.8429 16.8055 25.1702 16.7828 25.5257C16.7601 25.8817 16.737 26.1967 16.7148 26.4723H5.20824C5.32158 27.5277 5.80922 28.365 6.67212 28.9844C7.53453 29.6043 8.69213 29.9139 10.1444 29.9139C11.0749 29.9139 11.9879 29.8276 12.8851 29.6559C13.7812 29.4833 14.5129 29.2721 15.0806 29.019L15.7612 33.1839C15.4892 33.3214 15.126 33.459 14.6721 33.597C14.2177 33.7345 13.7132 33.855 13.1571 33.9584C12.601 34.0613 12.0048 34.1476 11.3696 34.2164C10.7338 34.2851 10.0986 34.3193 9.46338 34.3193C7.8519 34.3193 6.45073 34.0788 5.25888 33.597C4.06752 33.1151 3.08018 32.4553 2.29735 31.6174C1.51453 30.7801 0.935727 29.7876 0.560954 28.6406C0.187145 27.4945 0 26.2553 0 24.9239ZM11.9146 22.9624C11.8919 22.5264 11.8176 22.1016 11.6937 21.689C11.5683 21.2759 11.3753 20.9087 11.1149 20.5873C10.8535 20.2664 10.5245 20.0021 10.1276 19.7958C9.73011 19.589 9.23668 19.4861 8.64679 19.4861C8.07908 19.4861 7.59144 19.5841 7.18291 19.7787C6.77437 19.9738 6.43433 20.2323 6.16181 20.5532C5.88977 20.875 5.67947 21.2476 5.53188 21.6719C5.3838 22.0967 5.27673 22.5269 5.20872 22.9629L11.9146 22.9624Z" fill="#DD1F25"/>
<path d="M34.9074 3.89764L38.0006 0L41.0943 3.89764H34.9074Z" fill="#DD1F25"/>
<path d="M82.196 30L80.506 25.528H71.874L70.184 30H68.26L75.254 11.8H77.126L84.12 30H82.196ZM72.524 23.812H79.856L76.19 14.062L72.524 23.812ZM92.781 30.312C90.8224 30.312 89.193 29.662 87.893 28.362C86.593 27.0447 85.943 25.424 85.943 23.5C85.943 21.576 86.593 19.964 87.893 18.664C89.193 17.3467 90.8224 16.688 92.781 16.688C94.0637 16.688 95.2164 17 96.239 17.624C97.2617 18.2307 98.007 19.054 98.475 20.094L97.071 20.9C96.7244 20.12 96.161 19.5047 95.381 19.054C94.6184 18.586 93.7517 18.352 92.781 18.352C91.3424 18.352 90.129 18.8547 89.141 19.86C88.153 20.848 87.659 22.0613 87.659 23.5C87.659 24.9387 88.153 26.1607 89.141 27.166C90.129 28.154 91.3424 28.648 92.781 28.648C93.7517 28.648 94.6184 28.4227 95.381 27.972C96.1437 27.504 96.7417 26.88 97.175 26.1L98.605 26.932C98.0677 27.972 97.279 28.7953 96.239 29.402C95.199 30.0087 94.0464 30.312 92.781 30.312ZM112.902 17H114.618V30H112.902V27.452C111.706 29.3587 109.955 30.312 107.65 30.312C105.795 30.312 104.209 29.6533 102.892 28.336C101.592 27.0187 100.942 25.4067 100.942 23.5C100.942 21.5933 101.592 19.9813 102.892 18.664C104.209 17.3467 105.795 16.688 107.65 16.688C109.955 16.688 111.706 17.6413 112.902 19.548V17ZM104.14 27.166C105.128 28.154 106.341 28.648 107.78 28.648C109.218 28.648 110.432 28.154 111.42 27.166C112.408 26.1607 112.902 24.9387 112.902 23.5C112.902 22.0613 112.408 20.848 111.42 19.86C110.432 18.8547 109.218 18.352 107.78 18.352C106.341 18.352 105.128 18.8547 104.14 19.86C103.152 20.848 102.658 22.0613 102.658 23.5C102.658 24.9387 103.152 26.1607 104.14 27.166ZM130.211 11.8H131.927V30H130.211V27.452C129.015 29.3587 127.264 30.312 124.959 30.312C123.104 30.312 121.518 29.6533 120.201 28.336C118.901 27.0187 118.251 25.4067 118.251 23.5C118.251 21.5933 118.901 19.9813 120.201 18.664C121.518 17.3467 123.104 16.688 124.959 16.688C127.264 16.688 129.015 17.6413 130.211 19.548V11.8ZM121.449 27.166C122.437 28.154 123.65 28.648 125.089 28.648C126.528 28.648 127.741 28.154 128.729 27.166C129.717 26.1607 130.211 24.9387 130.211 23.5C130.211 22.0613 129.717 20.848 128.729 19.86C127.741 18.8547 126.528 18.352 125.089 18.352C123.65 18.352 122.437 18.8547 121.449 19.86C120.461 20.848 119.967 22.0613 119.967 23.5C119.967 24.9387 120.461 26.1607 121.449 27.166ZM142.346 16.688C144.27 16.688 145.822 17.3727 147 18.742C148.196 20.094 148.794 21.6973 148.794 23.552C148.794 23.7427 148.777 24.0113 148.742 24.358H137.328C137.502 25.6753 138.056 26.724 138.992 27.504C139.946 28.2667 141.116 28.648 142.502 28.648C143.49 28.648 144.34 28.4487 145.05 28.05C145.778 27.634 146.324 27.0967 146.688 26.438L148.196 27.322C147.624 28.2407 146.844 28.9687 145.856 29.506C144.868 30.0433 143.742 30.312 142.476 30.312C140.431 30.312 138.767 29.6707 137.484 28.388C136.202 27.1053 135.56 25.476 135.56 23.5C135.56 21.5587 136.193 19.938 137.458 18.638C138.724 17.338 140.353 16.688 142.346 16.688ZM142.346 18.352C140.994 18.352 139.859 18.7593 138.94 19.574C138.039 20.3713 137.502 21.4113 137.328 22.694H147.026C146.853 21.3247 146.324 20.2587 145.44 19.496C144.556 18.7333 143.525 18.352 142.346 18.352ZM166.162 16.688C167.618 16.688 168.788 17.156 169.672 18.092C170.573 19.028 171.024 20.2933 171.024 21.888V30H169.308V21.888C169.308 20.7613 169.013 19.8947 168.424 19.288C167.852 18.664 167.089 18.352 166.136 18.352C165.061 18.352 164.186 18.716 163.51 19.444C162.851 20.1547 162.522 21.2727 162.522 22.798V30H160.806V21.888C160.806 20.744 160.529 19.8687 159.974 19.262C159.437 18.6553 158.7 18.352 157.764 18.352C156.724 18.352 155.84 18.716 155.112 19.444C154.384 20.172 154.02 21.29 154.02 22.798V30H152.304V17H154.02V18.898C154.956 17.4247 156.282 16.688 157.998 16.688C159.87 16.688 161.187 17.4767 161.95 19.054C162.886 17.4767 164.29 16.688 166.162 16.688ZM184.229 17H186.049L180.485 31.196C179.982 32.4787 179.263 33.484 178.327 34.212C177.408 34.9573 176.377 35.2867 175.233 35.2V33.588C176.793 33.7613 177.98 32.86 178.795 30.884L179.133 30.078L173.309 17H175.129L180.017 27.894L184.229 17Z" fill="#666666"/>
</svg>
