<svg width="34" height="33" viewBox="0 0 34 33" fill="none" xmlns="http://www.w3.org/2000/svg">
<path d="M17 0.92502C13.1105 0.869022 9.33069 2.21442 6.35131 4.71536C3.37193 7.2163 1.39192 10.7058 0.77309 14.5462C0.154262 18.3865 0.937943 22.3214 2.98092 25.6316C5.0239 28.9418 8.18977 31.4064 11.9 32.575C12.65 32.725 13.25 31.9 13.25 31.225V29.05C8.74999 30.025 7.32499 26.875 7.32499 26.875C7.0324 25.9256 6.4567 25.0882 5.67499 24.475C4.17499 23.425 5.74999 23.5 5.74999 23.5C6.25087 23.54 6.73549 23.6964 7.1652 23.9568C7.59491 24.2172 7.95782 24.5745 8.22499 25C9.49999 27.175 12.35 26.95 13.25 26.575C13.1712 25.8293 13.301 25.0763 13.625 24.4C8.52499 23.5 5.74999 20.5 5.74999 16.45C5.69634 14.3378 6.47788 12.2896 7.92499 10.75C7.52186 10.0053 7.32976 9.16461 7.36941 8.3187C7.40906 7.47279 7.67897 6.65377 8.14999 5.95002C9.0558 5.96783 9.9485 6.16986 10.7737 6.54378C11.5989 6.91771 12.3394 7.45571 12.95 8.12502C14.2523 7.68063 15.6248 7.47731 17 7.52502C18.3694 7.48258 19.7367 7.65982 21.05 8.05002C21.6697 7.39774 22.4136 6.87595 23.2379 6.51531C24.0622 6.15468 24.9503 5.96248 25.85 5.95002C26.3107 6.6559 26.5805 7.46917 26.6331 8.31045C26.6857 9.15173 26.5192 9.99227 26.15 10.75C27.5698 12.3015 28.3239 14.3483 28.25 16.45C28.25 20.5 25.475 23.5 20.375 24.4C20.6989 25.0763 20.8288 25.8293 20.75 26.575V31.225C20.7497 31.4088 20.787 31.5907 20.8594 31.7596C20.9319 31.9285 21.0381 32.0807 21.1715 32.2071C21.3049 32.3335 21.4628 32.4314 21.6353 32.4946C21.8079 32.5579 21.9915 32.5852 22.175 32.575C25.7968 31.3184 28.8588 28.8235 30.8212 25.5302C32.7836 22.2368 33.5205 18.3565 32.9018 14.573C32.2832 10.7896 30.3489 7.34599 27.4397 4.84919C24.5306 2.35239 20.8335 0.962679 17 0.92502Z" fill="#3174A9"/>
</svg>
